<?xml version="1.0" encoding="UTF-8"?>
<svg id="Layer_1" xmlns="http://www.w3.org/2000/svg" version="1.1" xmlns:xlink="http://www.w3.org/1999/xlink" viewBox="0 0 50 50">
  <!-- Generator: Adobe Illustrator 29.2.1, SVG Export Plug-In . SVG Version: 2.1.0 Build 116)  -->
  <defs>
    <style>
      .st0 {
        fill: #e1ded9;
      }
    </style>
  </defs>
  <path class="st0" d="M12,23.4h0v-13h-.1c0,0,0,0,0,0l-2.7-2c-1.7-1.2-4.1-1.2-5.5.3-1,1-1.6,2.3-1.6,3.8v3.6l10,7.4Z"/>
  <path class="st0" d="M38,23.4h0s10-7.4,10-7.4v-3.6c0-1.5-.6-2.9-1.6-3.8-1.5-1.5-3.8-1.6-5.4-.4l-2.9,2.1h-.1v13.1Z"/>
  <path class="st0" d="M14,24.9l10.4,7.7c.4.3.8.3,1.2,0l10.4-7.7v-13l-11,8.1-11-8.1v13Z"/>
  <path class="st0" d="M38,25.9v15.1c0,.6.4,1,1,1h6.5c1.4,0,2.5-1.1,2.5-2.5v-21l-10,7.4Z"/>
  <path class="st0" d="M12,25.9l-10-7.4v21c0,1.4,1.1,2.5,2.5,2.5h6.5c.6,0,1-.4,1-1v-15.1Z"/>
</svg>