<?xml version="1.0" encoding="UTF-8"?>
<svg id="Layer_1" xmlns="http://www.w3.org/2000/svg" version="1.1" xmlns:xlink="http://www.w3.org/1999/xlink" viewBox="0 0 100 100">
  <!-- Generator: Adobe Illustrator 29.2.1, SVG Export Plug-In . SVG Version: 2.1.0 Build 116)  -->
  <defs>
    <style>
      .st0 {
        fill: #e1ded9;
      }
    </style>
  </defs>
  <path class="st0" d="M82,8H18c-5.5,0-10,4.5-10,10v64c0,5.5,4.5,10,10,10h64c5.5,0,10-4.5,10-10V18c0-5.5-4.5-10-10-10ZM34,40v38h-12v-38h12ZM22,28.9c0-2.8,2.4-4.9,6-4.9s5.9,2.1,6,4.9c0,2.8-2.2,5.1-6,5.1s-6-2.3-6-5.1ZM78,78h-12v-20c0-4-2-8-7-8.1h-.2c-4.8,0-6.8,4.1-6.8,8.1v20h-12v-38h12v5.1s3.9-5.1,11.6-5.1,14.4,5.5,14.4,16.5v21.5Z"/>
</svg>