<?xml version="1.0" encoding="UTF-8"?>
<svg id="Layer_1" xmlns="http://www.w3.org/2000/svg" version="1.1" viewBox="0 0 800 800">
  <!-- Generator: Adobe Illustrator 29.2.1, SVG Export Plug-In . SVG Version: 2.1.0 Build 116)  -->
  <defs>
    <style>
      .st0 {
        fill: #e1ded9;
      }
    </style>
  </defs>
  <path class="st0" d="M593.4,521.9c-9.7,2.9-24.1,3.2-39.4,1-16.5-2.4-33.3-7.4-49.8-14.8,29.4-4.3,52.3-3,71.8,4,4.6,1.6,12.2,6,17.4,9.9ZM429.1,494.9c-1.2.3-2.4.6-3.6,1-7.9,2.2-15.6,4.3-23.1,6.1l-10,2.5c-20.1,5.1-40.7,10.3-61.1,16.5,7.7-18.6,14.9-37.5,22-55.9,5.2-13.6,10.5-27.6,16-41.3,2.8,4.6,5.7,9.2,8.7,13.8,13.8,21,31.2,40.5,51,57.3ZM377.9,284.7c1.3,23-3.7,45.1-10.9,66.4-9-26.3-13.2-55.2-1.9-78.7,2.9-6,5.2-9.2,6.8-10.9,2.4,3.6,5.5,11.8,6.1,23.2ZM272.7,576.1c-5,9-10.2,17.5-15.5,25.4-12.7,19.2-33.5,39.7-44.2,39.7s-2.3-.2-4.2-2.1c-1.2-1.3-1.4-2.2-1.3-3.4.4-7,9.7-19.6,23.2-31.2,12.3-10.6,26.2-20,42-28.4ZM627.4,522.9c-1.6-23.5-41.2-38.5-41.6-38.7-15.3-5.4-31.9-8.1-50.8-8.1s-42,2.9-69.9,9.5c-24.9-17.6-46.4-39.7-62.4-64.2-7.1-10.8-13.5-21.6-19-32.1,13.6-32.4,25.8-67.3,23.6-106.4-1.8-31.3-15.9-52.4-35.1-52.4s-24.5,9.8-33.8,29c-16.5,34.3-12.1,78.3,12.9,130.7-9,21.1-17.4,43-25.5,64.3-10.1,26.4-20.4,53.6-32.1,79.5-32.8,13-59.7,28.7-82.2,48-14.7,12.6-32.4,31.9-33.4,52.1-.5,9.5,2.8,18.2,9.4,25.2,7,7.4,15.9,11.3,25.6,11.3,32.1,0,62.9-44.1,68.8-52.9,11.8-17.8,22.8-37.6,33.6-60.4,27.2-9.8,56.2-17.2,84.3-24.3l10.1-2.6c7.6-1.9,15.4-4.1,23.5-6.3,8.5-2.3,17.3-4.7,26.2-7,28.9,18.4,59.9,30.3,90.2,34.7,25.5,3.7,48.1,1.6,63.5-6.4,13.8-7.2,14.6-18.3,14.2-22.7ZM689.5,724.9c0,43-37.9,45.7-45.6,45.7H154.9c-42.9,0-45.4-38.2-45.5-45.7V75.1c0-43.1,38-45.7,45.5-45.7h330.4l.2.2v128.9c0,25.9,15.6,74.9,74.9,74.9h128.1l1.1,1.1v490.4ZM659.1,204h-98.8c-42.8,0-45.4-38-45.5-45.5V59.1l144.3,144.9ZM718.9,724.9V222.3L514.8,17.4v-1h-1L497.5,0H154.9c-25.9,0-74.9,15.7-74.9,75.1v649.7c0,26,15.7,75.1,74.9,75.1h489.1c25.9,0,74.9-15.7,74.9-75.1Z"/>
</svg>